<svg width="34" height="34" viewBox="0 0 34 34" fill="none" xmlns="http://www.w3.org/2000/svg">
<path fill-rule="evenodd" clip-rule="evenodd" d="M16.9999 0C26.4107 0 34 7.5893 34 16.9999C34 26.4107 26.4107 34 16.9999 34C7.58926 33.9241 0 26.3348 0 16.9999C0 7.5893 7.58926 0 16.9999 0Z" fill="white"/>
<path fill-rule="evenodd" clip-rule="evenodd" d="M16.9995 29.5982C10.0174 29.5982 4.40137 23.9063 4.40137 17C4.40137 10.0178 10.0933 4.40186 16.9995 4.40186C23.9816 4.40186 29.5978 10.0938 29.5978 17C29.5978 23.9063 23.9816 29.5982 16.9995 29.5982Z" fill="#DA393F"/>
<path fill-rule="evenodd" clip-rule="evenodd" d="M21.478 18.7461C21.478 20.1122 22.0851 20.4158 23.4511 20.4158H24.969V19.3532H24.2101C23.527 19.3532 23.3753 19.2015 23.3753 18.4425V15.6345H25.1208V14.5721H23.3753V12.447L21.478 12.7506V14.5721H20.2637V15.6345H21.478V18.7461Z" fill="white"/>
<path fill-rule="evenodd" clip-rule="evenodd" d="M26.5621 21.1744C24.5889 24.3619 21.0978 26.411 17.0755 26.411C13.0531 26.411 9.56214 24.2861 7.58887 21.1744H8.49958C10.2451 23.2995 14.1916 24.6655 17.1514 24.6655C20.1112 24.6655 24.0576 23.2995 25.8032 21.1744H26.5621Z" fill="white"/>
<path fill-rule="evenodd" clip-rule="evenodd" d="M10.8533 20.3399H13.4337L14.2685 16.7729H14.4203L15.1792 20.3399H17.6837L18.822 15.6345L19.581 15.5586V14.572H17.6837L16.697 18.8979H16.5453L15.4828 14.572H13.4337L12.4471 18.8979H12.2953L11.2328 14.572H8.95605V15.5586L9.71492 15.6345L10.8533 20.3399Z" fill="white"/>
<path fill-rule="evenodd" clip-rule="evenodd" d="M7.58887 12.5985C9.56214 9.41105 13.0531 7.36194 17.0755 7.36194C21.0978 7.36194 24.5889 9.48698 26.5621 12.5985H25.6514C23.9059 10.4735 19.9594 9.10747 16.9995 9.10747C14.0398 9.10747 10.0934 10.4735 8.34785 12.5985H7.58887Z" fill="white"/>
<path fill-rule="evenodd" clip-rule="evenodd" d="M16.9999 3.33922C24.5134 3.33922 30.5848 9.41076 30.5848 16.9241C30.5848 24.4375 24.5134 30.5089 16.9999 30.5089C9.4866 30.5089 3.41517 24.4375 3.41517 16.9241C3.41517 9.48656 9.4866 3.33922 16.9999 3.33922ZM16.9999 0C26.4107 0 34 7.5893 34 16.9999C34 26.4107 26.4107 34 16.9999 34C7.58926 33.9241 0 26.3348 0 16.9999C0 7.5893 7.58926 0 16.9999 0Z" fill="#8DC63F"/>
</svg>
