<svg width="20" height="20" viewBox="0 0 20 20" fill="none" xmlns="http://www.w3.org/2000/svg">
<path d="M10.1333 9.05866C10.05 9.05033 9.94999 9.05033 9.85832 9.05866C7.87499 8.99199 6.29999 7.36699 6.29999 5.36699C6.29999 3.32533 7.94999 1.66699 9.99999 1.66699C12.0417 1.66699 13.7 3.32533 13.7 5.36699C13.6917 7.36699 12.1167 8.99199 10.1333 9.05866Z" stroke="white" stroke-width="1.5" stroke-linecap="round" stroke-linejoin="round"/>
<path d="M5.41331 12.4768C3.19556 13.8268 3.19556 16.0268 5.41331 17.3684C7.93347 18.9018 12.0665 18.9018 14.5867 17.3684C16.8044 16.0184 16.8044 13.8184 14.5867 12.4768C12.0757 10.9518 7.94263 10.9518 5.41331 12.4768Z" stroke="white" stroke-width="1.5" stroke-linecap="round" stroke-linejoin="round"/>
</svg>
